<svg width="200" height="56" viewBox="0 0 200 56" fill="none" xmlns="http://www.w3.org/2000/svg">
<path d="M13.4553 9.1416H0V18.3442H7.52938V15.8344H13.7167V43.9476L16.6274 46.8583V12.3137L13.4553 9.1416Z" fill="url(#paint0_linear_619_116)"/>
<path d="M7.11108 21.2723H0V32.0087L10.4575 41.281V33.1938L7.11108 29.8474V21.2723Z" fill="url(#paint1_linear_619_116)"/>
<path d="M19.7996 9.1416H33.2549V18.3442H25.7255V15.8344H19.5382V43.9476L16.6275 46.8583V12.3137L19.7996 9.1416Z" fill="url(#paint2_linear_619_116)"/>
<path d="M26.1438 21.2723H33.2549V32.0087L22.7974 41.281V33.1938L26.1438 29.8474V21.2723Z" fill="url(#paint3_linear_619_116)"/>
<path d="M59.1749 12.72C57.8949 12.72 56.9215 12.9333 56.2549 13.36C55.6149 13.76 55.1482 14.32 54.8549 15.04C54.5882 15.76 54.3615 16.6133 54.1749 17.6C53.8815 17.6 53.5482 17.5733 53.1749 17.52C52.8015 17.4667 52.4949 17.3733 52.2549 17.24C52.4682 16.12 52.6282 15 52.7349 13.88C52.8415 12.76 52.8949 11.7467 52.8949 10.84C53.6415 10.8667 54.5482 10.8933 55.6149 10.92C56.7082 10.9467 57.8815 10.96 59.1349 10.96C60.4149 10.96 61.7349 10.96 63.0949 10.96C64.4549 10.96 65.7749 10.96 67.0549 10.96C68.3616 10.96 69.5616 10.9467 70.6549 10.92C71.7482 10.8933 72.6549 10.8667 73.3749 10.84C73.3482 11.8 73.3482 12.7867 73.3749 13.8C73.4282 14.8133 73.5082 15.96 73.6149 17.24C73.3482 17.3733 73.0416 17.48 72.6949 17.56C72.3749 17.6133 72.0149 17.6267 71.6149 17.6C71.5882 16.0267 71.2149 14.8267 70.4949 14C69.8016 13.1467 68.6682 12.72 67.0949 12.72H59.1749ZM61.2149 12.04H64.9749V32.92C64.9749 33.8 65.0549 34.4933 65.2149 35C65.3749 35.48 65.6816 35.8267 66.1349 36.04C66.5882 36.2267 67.2416 36.3467 68.0949 36.4C68.1749 36.6133 68.2282 36.8667 68.2549 37.16C68.2816 37.4267 68.2949 37.7467 68.2949 38.12C67.4416 38.0667 66.5616 38.0267 65.6549 38C64.7749 38 63.9082 38 63.0549 38C62.4949 38 61.8949 38 61.2549 38C60.6415 38.0267 60.0416 38.04 59.4549 38.04C58.8682 38.0667 58.3215 38.0933 57.8149 38.12C57.8149 37.7467 57.8282 37.4267 57.8549 37.16C57.8815 36.8667 57.9349 36.6133 58.0149 36.4C58.8682 36.3467 59.5215 36.2267 59.9749 36.04C60.4549 35.8267 60.7749 35.48 60.9349 35C61.1216 34.4933 61.2149 33.8 61.2149 32.92V12.04ZM77.7333 9.44C78.24 9.52 78.52 9.84 78.5733 10.4C78.5733 10.4533 78.5733 10.52 78.5733 10.6C78.5733 10.6533 78.5733 10.7067 78.5733 10.76C78.4133 11.9067 78.28 13.12 78.1733 14.4C78.0933 15.68 77.9867 17.1867 77.8533 18.92C77.5867 18.92 77.28 18.8933 76.9333 18.84C76.6133 18.76 76.3867 18.6533 76.2533 18.52C76.2 17.1067 76.1067 15.7067 75.9733 14.32C75.84 12.9333 75.6667 11.5867 75.4533 10.28C75.8267 10.2267 76.2267 10.12 76.6533 9.96C77.1067 9.8 77.4667 9.62667 77.7333 9.44ZM80.4724 38.12C80.4724 37.7467 80.4857 37.4267 80.5124 37.16C80.539 36.8667 80.5924 36.6133 80.6724 36.4C81.739 36.3467 82.459 36.0933 82.8324 35.64C83.2324 35.16 83.4324 34.2533 83.4324 32.92V25C83.4324 24.36 83.3657 23.84 83.2324 23.44C83.099 23.04 82.819 22.7333 82.3924 22.52C81.9657 22.3067 81.3124 22.1867 80.4324 22.16C80.4324 21.8667 80.459 21.6 80.5124 21.36C80.5657 21.12 80.659 20.8933 80.7924 20.68C81.2457 20.6533 81.8057 20.5733 82.4724 20.44C83.1657 20.28 83.8324 20.1067 84.4724 19.92C85.1124 19.7067 85.6057 19.5067 85.9524 19.32C86.1924 19.4 86.3924 19.56 86.5524 19.8C86.739 20.04 86.8324 20.4133 86.8324 20.92C86.8324 21.3467 86.8057 21.84 86.7524 22.4C86.7257 22.96 86.6457 23.7867 86.5124 24.88L86.1124 24.92C86.4857 23.9067 86.7524 23.2267 86.9124 22.88C87.099 22.5333 87.2324 22.3067 87.3124 22.2C87.739 21.5867 88.4457 20.96 89.4324 20.32C90.4457 19.6533 91.6457 19.32 93.0324 19.32C94.1524 19.32 95.179 19.5733 96.1124 20.08C97.0457 20.5867 97.7257 21.4533 98.1524 22.68C98.259 23 98.3124 23.44 98.3124 24H98.1924C98.4324 23.3333 98.699 22.8 98.9924 22.4C99.4457 21.7867 100.166 21.16 101.152 20.52C102.139 19.8533 103.326 19.52 104.712 19.52C105.726 19.52 106.659 19.7333 107.512 20.16C108.366 20.56 109.046 21.24 109.552 22.2C110.086 23.1333 110.352 24.4133 110.352 26.04V32.92C110.352 33.8267 110.432 34.5333 110.592 35.04C110.779 35.52 111.046 35.8533 111.392 36.04C111.766 36.2267 112.219 36.3467 112.752 36.4C112.832 36.64 112.886 36.8933 112.912 37.16C112.939 37.4267 112.952 37.7467 112.952 38.12C112.366 38.0667 111.686 38.0267 110.912 38C110.166 38 109.392 38 108.592 38C108.059 38 107.512 38 106.952 38C106.392 38.0267 105.846 38.04 105.312 38.04C104.779 38.0667 104.286 38.0933 103.832 38.12C103.832 37.7467 103.846 37.4267 103.872 37.16C103.899 36.8667 103.952 36.6133 104.032 36.4C104.752 36.3467 105.312 36.2267 105.712 36.04C106.112 35.8267 106.392 35.48 106.552 35C106.712 34.4933 106.792 33.8 106.792 32.92V26.84C106.792 24.9467 106.446 23.6667 105.752 23C105.086 22.3067 104.206 21.96 103.112 21.96C102.446 21.96 101.766 22.1867 101.072 22.64C100.379 23.0667 99.8057 23.7733 99.3524 24.76C98.899 25.72 98.6724 27.0133 98.6724 28.64V32.92C98.6724 34.3067 98.8857 35.2267 99.3124 35.68C99.7391 36.1067 100.459 36.3467 101.472 36.4C101.552 36.64 101.606 36.8933 101.632 37.16C101.659 37.4267 101.672 37.7467 101.672 38.12C101.006 38.0667 100.232 38.0267 99.3524 38C98.499 38 97.6857 38 96.9124 38C96.139 38 95.3257 38 94.4724 38C93.6457 38.0267 92.8724 38.0667 92.1524 38.12C92.1524 37.7467 92.1657 37.4267 92.1924 37.16C92.219 36.8667 92.2724 36.6133 92.3524 36.4C93.0724 36.3467 93.6324 36.2267 94.0324 36.04C94.4324 35.8267 94.7124 35.48 94.8724 35C95.0324 34.4933 95.1124 33.8 95.1124 32.92V26.64C95.1124 24.7467 94.7657 23.4667 94.0724 22.8C93.4057 22.1067 92.5257 21.76 91.4324 21.76C90.7657 21.76 90.0857 21.9867 89.3924 22.44C88.699 22.8667 88.1257 23.5733 87.6724 24.56C87.219 25.52 86.9924 26.8133 86.9924 28.44V32.92C86.9924 34.2533 87.1924 35.16 87.5924 35.64C87.9924 36.0933 88.7257 36.3467 89.7924 36.4C89.8724 36.64 89.9257 36.8933 89.9524 37.16C89.979 37.4267 89.9924 37.7467 89.9924 38.12C89.539 38.0933 89.0324 38.0667 88.4724 38.04C87.9124 38.04 87.3524 38.0267 86.7924 38C86.2324 38 85.7124 38 85.2324 38C84.779 38 84.259 38 83.6724 38C83.0857 38.0267 82.5124 38.04 81.9524 38.04C81.3924 38.0667 80.899 38.0933 80.4724 38.12ZM122.863 38.36C120.97 38.36 119.396 37.9333 118.143 37.08C116.89 36.2267 115.943 35.08 115.303 33.64C114.69 32.1733 114.383 30.5733 114.383 28.84C114.383 27.1333 114.716 25.56 115.383 24.12C116.05 22.68 116.996 21.52 118.223 20.64C119.476 19.76 120.956 19.32 122.663 19.32C124.396 19.32 125.783 19.6933 126.823 20.44C127.89 21.1867 128.676 22.1867 129.183 23.44C129.716 24.6933 130.036 26.08 130.143 27.6C130.036 28.1333 129.836 28.5867 129.543 28.96C129.09 28.96 128.41 28.96 127.503 28.96C126.596 28.96 125.57 28.9733 124.423 29C123.276 29 122.103 29.0267 120.903 29.08C119.703 29.1067 118.57 29.1467 117.503 29.2V27.16H125.983C125.983 25.4 125.663 23.9733 125.023 22.88C124.383 21.7867 123.476 21.24 122.303 21.24C121.663 21.24 121.036 21.44 120.423 21.84C119.81 22.2133 119.303 22.8933 118.903 23.88C118.503 24.84 118.303 26.2133 118.303 28C118.303 29.3067 118.463 30.5867 118.783 31.84C119.13 33.0667 119.716 34.0933 120.543 34.92C121.396 35.72 122.596 36.12 124.143 36.12C125.023 36.12 125.89 35.92 126.743 35.52C127.596 35.12 128.356 34.5467 129.023 33.8C129.236 33.9067 129.436 34.0933 129.623 34.36C129.836 34.6 129.956 34.8267 129.983 35.04C129.076 36.24 128.023 37.0933 126.823 37.6C125.65 38.1067 124.33 38.36 122.863 38.36ZM138.728 47.96C137.102 47.96 135.768 47.7467 134.728 47.32C133.715 46.92 132.968 46.32 132.488 45.52C132.008 44.72 131.768 43.7333 131.768 42.56C131.768 41.5467 132.035 40.6667 132.568 39.92C133.128 39.1733 133.902 38.5867 134.888 38.16L136.888 38.32C136.248 38.8 135.808 39.3067 135.568 39.84C135.328 40.3733 135.208 41 135.208 41.72C135.208 43.08 135.542 44.1067 136.208 44.8C136.902 45.4933 138.062 45.84 139.688 45.84C141.448 45.84 142.822 45.4 143.808 44.52C144.822 43.64 145.328 42.6267 145.328 41.48C145.328 40.7867 145.155 40.24 144.808 39.84C144.488 39.44 143.848 39.1467 142.888 38.96C141.955 38.7733 140.568 38.68 138.728 38.68C137.528 38.68 136.542 38.6133 135.768 38.48C135.022 38.3733 134.422 38.1867 133.968 37.92C133.542 37.6267 133.235 37.2667 133.048 36.84C132.888 36.4133 132.808 35.8933 132.808 35.28C132.808 34.4 133.062 33.5467 133.568 32.72C134.102 31.8667 134.782 31.1067 135.608 30.44L137.088 31.48C136.555 31.9333 136.168 32.36 135.928 32.76C135.715 33.16 135.608 33.5067 135.608 33.8C135.608 34.28 135.728 34.64 135.968 34.88C136.235 35.12 136.782 35.28 137.608 35.36C138.435 35.44 139.702 35.48 141.408 35.48C143.195 35.48 144.608 35.6267 145.648 35.92C146.715 36.2133 147.475 36.68 147.928 37.32C148.408 37.96 148.648 38.8267 148.648 39.92C148.648 40.8267 148.395 41.7467 147.888 42.68C147.408 43.64 146.728 44.5067 145.848 45.28C144.968 46.08 143.915 46.72 142.688 47.2C141.488 47.7067 140.168 47.96 138.728 47.96ZM139.688 32.44C138.435 32.44 137.248 32.2 136.128 31.72C135.008 31.24 134.102 30.52 133.408 29.56C132.742 28.6 132.408 27.4 132.408 25.96C132.408 24.7333 132.675 23.6267 133.208 22.64C133.742 21.6267 134.542 20.8267 135.608 20.24C136.702 19.6267 138.035 19.32 139.608 19.32C140.942 19.32 142.062 19.5467 142.968 20C143.902 20.4267 144.662 20.9867 145.248 21.68C145.835 22.3467 146.262 23.0533 146.528 23.8C146.795 24.52 146.928 25.16 146.928 25.72C146.928 26.9467 146.648 28.08 146.088 29.12C145.555 30.1333 144.742 30.9467 143.648 31.56C142.582 32.1467 141.262 32.44 139.688 32.44ZM140.168 30.6C141.048 30.6 141.768 30.24 142.328 29.52C142.888 28.7733 143.168 27.7067 143.168 26.32C143.168 24.9067 142.822 23.6933 142.128 22.68C141.435 21.64 140.462 21.12 139.208 21.12C138.142 21.12 137.355 21.5733 136.848 22.48C136.342 23.36 136.088 24.3467 136.088 25.44C136.088 27.0933 136.448 28.3733 137.168 29.28C137.888 30.16 138.888 30.6 140.168 30.6ZM148.968 22.16C148.542 22.0533 148.022 21.9467 147.408 21.84C146.822 21.7333 146.235 21.64 145.648 21.56C145.088 21.48 144.608 21.4267 144.208 21.4L141.408 19.68H148.688C148.795 20.0267 148.862 20.4267 148.888 20.88C148.942 21.3067 148.968 21.7333 148.968 22.16ZM168.798 32.92C168.798 34.3067 168.985 35.24 169.358 35.72C169.758 36.1733 170.358 36.4 171.158 36.4C171.238 36.64 171.291 36.8933 171.318 37.16C171.345 37.4267 171.358 37.7467 171.358 38.12C170.771 38.0667 170.105 38.0267 169.358 38C168.611 38 167.825 38 166.998 38C166.465 38 165.905 38 165.318 38C164.731 38.0267 164.171 38.04 163.638 38.04C163.131 38.0667 162.665 38.0933 162.238 38.12C162.238 37.7467 162.251 37.4267 162.278 37.16C162.305 36.8667 162.358 36.6133 162.438 36.4C163.398 36.4 164.091 36.16 164.518 35.68C164.971 35.1733 165.198 34.2533 165.198 32.92V26.84C165.198 24.9467 164.851 23.6667 164.158 23C163.465 22.3067 162.571 21.96 161.478 21.96C160.785 21.96 160.091 22.1867 159.398 22.64C158.705 23.0667 158.118 23.7733 157.638 24.76C157.185 25.72 156.958 27.0133 156.958 28.64V32.92C156.958 34.2533 157.158 35.1733 157.558 35.68C157.958 36.16 158.678 36.4 159.718 36.4C159.798 36.64 159.851 36.8933 159.878 37.16C159.905 37.4267 159.918 37.7467 159.918 38.12C159.545 38.0933 159.091 38.0667 158.558 38.04C158.025 38.04 157.465 38.0267 156.878 38C156.291 38 155.718 38 155.158 38C154.625 38 154.065 38 153.478 38C152.891 38.0267 152.331 38.04 151.798 38.04C151.265 38.0667 150.798 38.0933 150.398 38.12C150.398 37.7467 150.411 37.4267 150.438 37.16C150.465 36.8667 150.518 36.6133 150.598 36.4C151.638 36.4 152.358 36.16 152.758 35.68C153.158 35.1733 153.358 34.2533 153.358 32.92V25L156.958 21.08C156.958 21.4 156.945 21.76 156.918 22.16C156.891 22.56 156.811 22.9867 156.678 23.44C156.758 23.3067 156.838 23.16 156.918 23C156.998 22.8133 157.118 22.6133 157.278 22.4C157.731 21.7867 158.451 21.16 159.438 20.52C160.451 19.8533 161.665 19.52 163.078 19.52C164.091 19.52 165.025 19.7333 165.878 20.16C166.758 20.56 167.465 21.24 167.998 22.2C168.531 23.1333 168.798 24.4133 168.798 26.04V32.92ZM153.358 15C153.358 14.36 153.291 13.84 153.158 13.44C153.051 13.0133 152.785 12.6933 152.358 12.48C151.931 12.2667 151.265 12.16 150.358 12.16C150.358 11.8667 150.385 11.6 150.438 11.36C150.491 11.12 150.585 10.8933 150.718 10.68C151.118 10.68 151.678 10.6133 152.398 10.48C153.145 10.3467 153.865 10.1733 154.558 9.96C155.251 9.74666 155.758 9.53333 156.078 9.32C156.318 9.4 156.518 9.56 156.678 9.8C156.865 10.04 156.958 10.4133 156.958 10.92V16.48H153.358V15ZM153.358 15H156.958V21.08L153.358 25.6V15ZM184.906 38.36C184.613 38.2267 184.373 37.9867 184.186 37.64C184.026 37.2933 183.946 36.7467 183.946 36C183.946 35.76 183.959 35.48 183.986 35.16C184.013 34.8133 184.066 34.5067 184.146 34.24H184.226C184.146 34.6667 183.959 35.1333 183.666 35.64C183.399 36.12 183.039 36.5467 182.586 36.92C182.133 37.32 181.559 37.6533 180.866 37.92C180.173 38.16 179.333 38.28 178.346 38.28C176.666 38.28 175.386 37.9067 174.506 37.16C173.626 36.3867 173.186 35.3467 173.186 34.04C173.186 33 173.426 32.12 173.906 31.4C174.413 30.6533 175.053 30.04 175.826 29.56C176.626 29.0533 177.479 28.6533 178.386 28.36C179.319 28.0667 180.226 27.84 181.106 27.68C181.986 27.52 182.759 27.3867 183.426 27.28C183.426 26.1867 183.399 25.3333 183.346 24.72C183.319 24.1067 183.239 23.6267 183.106 23.28C182.999 22.9067 182.826 22.5867 182.586 22.32C182.266 21.92 181.893 21.6267 181.466 21.44C181.066 21.2267 180.613 21.12 180.106 21.12C179.226 21.12 178.533 21.4 178.026 21.96C177.519 22.4933 177.159 23.12 176.946 23.84C176.733 24.56 176.613 25.2 176.586 25.76C176.293 25.76 175.919 25.7467 175.466 25.72C175.039 25.6667 174.719 25.5867 174.506 25.48C174.559 24.8133 174.573 24.0667 174.546 23.24C174.519 22.4133 174.439 21.7067 174.306 21.12C175.399 20.56 176.546 20.12 177.746 19.8C178.973 19.48 180.093 19.32 181.106 19.32C182.093 19.32 182.933 19.4667 183.626 19.76C184.346 20.0267 184.919 20.3867 185.346 20.84C186.039 21.5067 186.493 22.3867 186.706 23.48C186.919 24.5467 187.026 25.9733 187.026 27.76V32.16C187.026 32.9067 187.079 33.5067 187.186 33.96C187.319 34.3867 187.559 34.7067 187.906 34.92C188.253 35.1067 188.786 35.2267 189.506 35.28C189.506 35.5467 189.493 35.8533 189.466 36.2C189.439 36.52 189.373 36.8267 189.266 37.12C188.599 37.1467 187.853 37.28 187.026 37.52C186.226 37.7333 185.519 38.0133 184.906 38.36ZM179.466 36.08C180.053 36.08 180.653 35.8933 181.266 35.52C181.879 35.12 182.386 34.5067 182.786 33.68C183.213 32.8533 183.426 31.7733 183.426 30.44V28.92C182.759 29 182.053 29.12 181.306 29.28C180.559 29.4133 179.866 29.6267 179.226 29.92C178.586 30.2133 178.066 30.6267 177.666 31.16C177.266 31.6667 177.066 32.36 177.066 33.24C177.066 34.2267 177.306 34.9467 177.786 35.4C178.266 35.8533 178.826 36.08 179.466 36.08Z" fill="#161313"/>
<path d="M194.148 38.4C193.295 38.4 192.628 38.16 192.148 37.68C191.668 37.2 191.428 36.5867 191.428 35.84C191.428 35.0933 191.695 34.4533 192.228 33.92C192.788 33.3867 193.495 33.12 194.348 33.12C195.175 33.12 195.815 33.4 196.268 33.96C196.748 34.4933 196.988 35.04 196.988 35.6C196.988 36.56 196.695 37.2667 196.108 37.72C195.548 38.1733 194.895 38.4 194.148 38.4Z" fill="url(#paint4_linear_619_116)"/>
<defs>
<linearGradient id="paint0_linear_619_116" x1="0" y1="27.9999" x2="16.6274" y2="27.9999" gradientUnits="userSpaceOnUse">
<stop stop-color="#FE8C00"/>
<stop offset="1" stop-color="#F83600"/>
</linearGradient>
<linearGradient id="paint1_linear_619_116" x1="0" y1="27.9999" x2="16.6274" y2="27.9999" gradientUnits="userSpaceOnUse">
<stop stop-color="#FE8C00"/>
<stop offset="1" stop-color="#F83600"/>
</linearGradient>
<linearGradient id="paint2_linear_619_116" x1="33.2549" y1="27.9999" x2="16.6275" y2="27.9999" gradientUnits="userSpaceOnUse">
<stop stop-color="#F5AF19"/>
<stop offset="1" stop-color="#CE2D1B"/>
</linearGradient>
<linearGradient id="paint3_linear_619_116" x1="33.2549" y1="27.9999" x2="16.6275" y2="27.9999" gradientUnits="userSpaceOnUse">
<stop stop-color="#F5AF19"/>
<stop offset="1" stop-color="#CE2D1B"/>
</linearGradient>
<linearGradient id="paint4_linear_619_116" x1="51.2549" y1="28" x2="199.255" y2="28" gradientUnits="userSpaceOnUse">
<stop stop-color="#FE8C00"/>
<stop offset="1" stop-color="#F83600"/>
</linearGradient>
</defs>
</svg>
